<svg xmlns="http://www.w3.org/2000/svg" viewBox="0 0 424.19 1027.99"><defs><style>.cls-1,.cls-5{fill:#c12f2f;}.cls-1{stroke:#c12f2f;}.cls-1,.cls-2,.cls-3,.cls-4,.cls-5,.cls-6{stroke-miterlimit:10;}.cls-2,.cls-6{fill:#d3c259;}.cls-2{stroke:#917f27;}.cls-3{fill:#680c0c;stroke:#510a0a;}.cls-10,.cls-4{fill:#414244;}.cls-4{stroke:#414244;}.cls-5{stroke:#771d1d;}.cls-6{stroke:#d3c259;}.cls-7{fill:#585c5f;}.cls-8{fill:#4e4f51;}.cls-9{fill:#393a3e;}.cls-11{fill:#9ca1a4;}.cls-12{fill:#b5b6b8;}.cls-13{fill:#7a7d82;}.cls-14{fill:#515050;}.cls-15{fill:#3977b0;}</style></defs><g id="Layer_2" data-name="Layer 2"><g id="Layer_4" data-name="Layer 4"><path class="cls-1" d="M210.42,1027.49l-10.73-44.42,1-47.37s5.8-4.6,11-4.6a15.13,15.13,0,0,1,10.88,4.6v48.22l-10.13,43.57Z"/><path class="cls-2" d="M200.71,935.7s-1.09-8.45-2-11.1a47.52,47.52,0,0,0-2.68-5.08L198.1,690.8h30.71l-1.49,228.4a79.56,79.56,0,0,0-3.28,7.3,87.38,87.38,0,0,0-1.49,9.2s-7.27-4-10.13-4.12A16.77,16.77,0,0,0,200.71,935.7Z"/><polygon class="cls-3" points="194.73 264.66 233.48 264.65 233.48 290.38 194.73 290.38 194.73 264.66"/><polygon class="cls-1" points="190.35 690.8 189.16 665.95 238.8 665.95 238.8 690.8 190.35 690.8"/><polygon class="cls-1" points="238.8 673.03 244.42 677.47 244.42 683.18 238.8 685.93 238.8 673.03"/><polygon class="cls-4" points="251.48 672.5 251.48 687.41 248.16 687.41 246.74 681.63 244.42 681.58 244.42 678.5 246.82 678.81 248.13 673.42 251.48 672.5"/><path class="cls-1" d="M410.41,885.84s-.07,32-.47,41.4c0,.79-3,.75-3,0,.09-1.43-.76-3.45-1-4.62-1.32-6.43-9-24.22-9-24.22l-8.82-37.23s-3.23.42-4.18-.06c-2.94-1.47-8.38-10.57-8.38-10.57l4-.9,2.35,3.2,4.22-1.36,14.71-1.57,4.16,17.18,12.57-3.48,5.63,2.92-4.37,3.75Z"/><path class="cls-2" d="M351.93,652.25l-23.86.57,51,185.72,6.44,10.23,0,2.33,4.35,2s6.91,3.86,9.1,3.5c1.67-.27.14-12.48.14-12.48l2-5.52Z"/><path class="cls-1" d="M13.56,887s-.3,32,0,41.39c0,.8,3,.8,3,0-.08-1.42.79-3.44,1-4.6,1.39-6.41,9.24-24.11,9.24-24.11l9.25-37.11s3.22.46,4.17,0c3-1.44,8.5-10.47,8.5-10.47l-4-1-2.38,3.17-4.2-1.41-14.7-1.76-4.36,17.13L6.55,864.64.89,867.5l4.32,3.8Z"/><path class="cls-2" d="M74.67,654.18l23.86.88L45.46,840.11,38.9,850.26v2.33l-4.37,1.9s-7,3.77-9.15,3.38c-1.66-.29,0-12.48,0-12.48l-1.95-5.54Z"/><path class="cls-5" d="M353.36,635.7l-9.09,6.35s-26.6-5.7-26.71-6.5,10.95-3.29,10.95-3.29Z"/><polygon class="cls-5" points="357.54 656.64 348.05 661.08 344.27 642.05 353.36 635.7 357.54 656.64"/><path class="cls-5" d="M324.74,656.48l23.31,4.6-3.78-19s-25.44-6.13-26.71-6.5C316.87,635.36,324.74,656.48,324.74,656.48Z"/><path class="cls-5" d="M73.33,636.71l9.1,6.34s26.6-5.7,26.7-6.49-10.94-3.29-10.94-3.29Z"/><polygon class="cls-5" points="69.16 657.65 78.65 662.09 82.43 643.05 73.33 636.71 69.16 657.65"/><path class="cls-5" d="M102,657.49l-23.3,4.6,3.78-19s25.44-6.13,26.7-6.49C109.83,636.36,102,657.49,102,657.49Z"/><path class="cls-6" d="M349.71,636.49a5.94,5.94,0,0,1-3.68,2.86c-4.14,1.26-5.8.22-5.8.22L250.34,288.3l9.33-2.45Z"/><path class="cls-6" d="M237.81,280.31l-7.95,6.79,91.62,347.8,4.63,1.9H328L294.65,512.29s-2.08-8.83-3.43-13.49c-.2-.72,3.73-1.11,3.73-1.11Z"/><path class="cls-2" d="M303.43,497.69a72.39,72.39,0,0,0-8.48,0,13.79,13.79,0,0,0-3.73,1.11L328,636.8l6,1.27,6.22,1Z"/><polygon class="cls-6" points="228.51 287.28 238.65 287.28 238.8 665.95 229.86 665.95 228.51 287.28"/><path class="cls-6" d="M186.92,284.54h10.35L105.68,636l-4.62,1.9H99.12L132.51,513.4s2.09-8.83,3.43-13.48c.21-.73-3.72-1.11-3.72-1.11Z"/><path class="cls-6" d="M77.46,637.61a5.87,5.87,0,0,0,3.67,2.85c4.14,1.26,5.8.23,5.8.23L178.3,289.82l-9.41-2.54Z"/><path class="cls-2" d="M123.74,498.81a72.39,72.39,0,0,1,8.48,0,13.64,13.64,0,0,1,3.72,1.11l-36.82,138-6,1.27-6.23,1Z"/><polygon class="cls-6" points="189.16 287.28 200.89 287.28 198.2 665.95 189.16 665.95 189.16 287.28"/><polygon class="cls-5" points="231.69 282.53 251.3 286.66 244.36 261.25 236.66 260.06 236.66 275.71 231.69 282.53"/><path class="cls-5" d="M251.3,290c1.5,1.6,9-1.92,8.56-4.12-1.19-6-6.29-21.89-6.29-21.89l-10.85-3.53,1.64,4.14S249.83,288.41,251.3,290Z"/><path class="cls-5" d="M236.66,263.38s7.4,1.43,9.64,1.27,8.52-1.25,7.06-2a57.71,57.71,0,0,1-9.15-6.45H226.12v8.46Z"/><polygon class="cls-5" points="177.43 261.9 185.48 257.46 198.4 257.99 197.9 266.24 183.39 265.71 177.43 261.9"/><polygon class="cls-5" points="182 264.65 178.49 289.82 196.24 283.08 190.35 264.65 182 264.65"/><path class="cls-5" d="M177.43,261.9s4.11-.51,5.37,0a29.47,29.47,0,0,1,4.17,2.75l-8.48,25.17a25.36,25.36,0,0,1-5.24,0,24,24,0,0,1-4.17-2.54Z"/><path class="cls-5" d="M197.11,249.82H230.5s-.79,9.62,0,11.87h8.35v25.59H228.71s-3.7-7-5.77-8.46c-3.26-2.23-11.95-2.51-15.5-.85-2.36,1.11-6.36,9.31-6.36,9.31H189.35v-25l7.56-.42C197.73,259.44,197.11,249.82,197.11,249.82Z"/><path class="cls-1" d="M179,240.2v9.33h1.79v2.85H179s-1.63,6.92,0,7c6.53.23,16.93-.12,16.7,0l.4-6.8s-.94-3.92,0-4.06c8.75-1.27,23.95-2.43,35.88,0,.94.19-.1,3.38-.1,3.38l-.4,7.48h17.59c1.6,0,0-6.82,0-6.82l-2.55-.26-.14-2.5h2.69V240.2Z"/><polygon class="cls-2" points="199.29 512.83 229.31 512.83 229.86 665.95 198.2 665.95 199.29 512.83"/></g><g id="Layer_7" data-name="Layer 7"><path class="cls-7" d="M179.43,233.46s.12,3.24,0,4.31c-.19,1.69,4.39,3.4,6.12,3.94,4.73,1.5,42.47,3.06,56.42.94,1.88-.28,6.17-1.61,7.26-3.19.74-1.07,0-6.75,0-6.75Z"/><path class="cls-8" d="M179.25,232.9c.23,1.6,3.95,2.92,5.51,3.19,6.77,1.14,27.41,1.12,27.41,1.12l29.25-.94s7.8-.13,8.11-2.25c.42-2.86-6.79-5.65-9.58-6.19-5.52-1.06-22.44-1.31-22.44-1.31s-17.33.26-22.81.94c-3.43.42-12.69,2.44-12.69,2.44S179.09,231.88,179.25,232.9Z"/><path class="cls-7" d="M177.68,226.52s-.37,4.76,0,5.82c.47,1.32,3.95,1.35,5.31,1.54a43.74,43.74,0,0,0,8,0c3.38-.33,5-.06,5.1-1.4s0-6,0-6Z"/><path class="cls-8" d="M181.15,225.08s-3.44.49-3.47,1.44,6.47,2,8.69,2c5.87,0,9.79-1.69,9.73-2-.14-.73-3-1.22-3-1.22l-6.25-.77Z"/><path class="cls-9" d="M181.82,221.86v4.36c0,1.14,3.22,1.16,4.35,1.19,1.34,0,5.24-.41,5.24-1.12v-4.43Z"/><path class="cls-7" d="M232.78,227.1s-.37,4.76,0,5.81c.46,1.33,3.94,1.36,5.31,1.55a44.53,44.53,0,0,0,8,0c3.38-.33,5-.06,5.11-1.41s0-6,0-6Z"/><path class="cls-8" d="M236.25,225.66s-3.44.49-3.47,1.44,6.46,2,8.69,2c5.86,0,9.79-1.7,9.73-2-.15-.74-3-1.22-3-1.22l-6.24-.77Z"/><path class="cls-9" d="M236.92,222.43v4.36c0,1.15,3.22,1.17,4.34,1.2,1.34,0,5.24-.41,5.24-1.13,0-1.19,0-4.43,0-4.43Z"/><path class="cls-9" d="M185.55,131.24a37.47,37.47,0,0,0,4.41,1.93c2.59.64,8,.81,10.62.84,2.37,0,9.46,0,9.46,0l4.89-3.94L195.76,128Z"/><polygon class="cls-10" points="187.06 132.18 205.97 133.73 241.84 132.96 244.73 138.79 215.62 139.76 193.55 139.36 182.89 138.13 187.06 132.18"/><path class="cls-7" d="M179.45,209.43c-2.31-.15-3.15,11.25-1.49,12.22,3,1.77,4.41,1.4,4.41,1.4s63.9.31,65.56.15c3.15-.29,1.6-8.5,1.6-8.5l-.66-2.83S198.1,210.67,179.45,209.43Z"/><path class="cls-8" d="M183.75,209.13c-7.17-.14-4.95,1.55-4.69,2,.78,1.24,3.81,2.3,5.25,2.53,8.59,1.33,34.76,1,34.76,1h24.28s4.56.38,5.52-.42a2.08,2.08,0,0,0,0-2.32c-2.07-2-12.69-1.48-12.69-1.48S197.06,209.39,183.75,209.13Z"/><path class="cls-9" d="M184.58,205.64l-.83,5.5s.46,1.13,3.68,1.36,4.33-.59,4.33-.59l-.23-5.88Z"/><path class="cls-9" d="M238.71,206.38l-.83,5.5s.46,1.12,3.68,1.36,4.33-.59,4.33-.59l-.23-5.88Z"/><path class="cls-7" d="M181.82,137s-3.37,23.29-4.55,34.18c-.8,7.34-4,23.35-4,32.35,0,1.1,5,2.33,5,2.33s14.61,2.8,19.54,3.3a253.16,253.16,0,0,0,37.66,0c4.79-.48,20.21-.74,20-5.91-1-24.2-10.77-64.43-10.77-64.43l-32.42.54s-13,.21-18.76,0C191,139.28,181.82,137,181.82,137Z"/><path class="cls-11" d="M231.15,207.64a60.47,60.47,0,0,0,14.23.22l17.56-1.78c10.4-1,7.09,2.72,8.36-8.68l6.27-153.55-49.39-2.54-6.26,76.55c0,.23,0,.47,0,.71l-.39,87.07C222.37,206.21,226.71,207,231.15,207.64Z"/><path class="cls-7" d="M228.17,41.52l-12.37.77a3.78,3.78,0,0,0-3.39,3.11l-5.41,35a379.93,379.93,0,0,0-3.55,59.16l3,62.07a3.77,3.77,0,0,0,4.09,3.61l10.95.38Z"/><path class="cls-12" d="M288.65,46.56a6.78,6.78,0,0,0,.89,1.75,5,5,0,0,0,2.53,1.06,3.84,3.84,0,0,0,2.74-.32l2.83.41,8.62,4.23,3.32,25.88,2.48,24.2,3,32.35.93,14.15q.45,6.85.45,13.73v24.93a4.89,4.89,0,0,1-1.77,3.79l-3.34,2.75a33.21,33.21,0,0,1-7.48,4.63l-5,2.23a28.2,28.2,0,0,1-8.74,2.32l-9,.89c-2.76.14-4.05.1-7.36.1h-3.19l7-161.79Z"/><path class="cls-11" d="M165.08,47,130.5,54.28l-6.44,26a16.07,16.07,0,0,1,.29,2.36L124,84.51a15,15,0,0,1-1.39,2.21l-7,48.37.45,2.46-.48,2.86-1.22,1.64-2.57,48.77.92.93,32,7.13,4.23-42.2L158.12,83Z"/><path class="cls-7" d="M167.21,46.09l8.08-.37a25.58,25.58,0,0,1,5.06,0L165.12,127.2a2.76,2.76,0,0,0-.06.4l-8,66c-.69,4.77-.91,6.78-.91,6.78l-11.5-1.54.78-6.67,4.64-45c0-.14,8-64.09,8-64.23l6.8-35.06C165.11,46.81,165.08,46.47,167.21,46.09Z"/><path class="cls-8" d="M211.34,52.34l-10.85-3.52-20.14-3.13L165.06,127.6l-8.9,72.82L166.83,202l8.28.66.55-12.75,6.16-42.77s1-8.09,1.47-8.81a44.66,44.66,0,0,1,3.87-5.25c1-.85,4.36-1.39,9.84-1.41,2.83,0,6.39.19,6.39.19l.53-19.23,1.24-16.5,2.51-20,2.61-16.94Z"/><path class="cls-9" d="M210.16,60s-.8-1.11-2.18-2.8a10.19,10.19,0,0,0-4.32-2.54s-5-1.21-8.14,1.9a31.66,31.66,0,0,0-4.44,6.14,46.84,46.84,0,0,0-2.94,9.27c-1.59,7-1.19,10-1.06,14.68a42.33,42.33,0,0,0,4.12,16.9c2.53,5.32,4,5.31,9,8.31a20.92,20.92,0,0,0,3.68,1.11Z"/><path class="cls-7" d="M288.73,46.66a0,0,0,0,0-.07,0c.18,2.22,2.72,33.51,3.72,44.05.87,9.3,4,37.14,4,37.14s.57,3.39,1.47,3.37,1.29-3.18,1.29-3.18,1.66-25,1-37.23c-.53-10.13-2.33-41.26-2.33-41.26a6.23,6.23,0,0,0-1.35-.75c-.88-.28-2.75.36-3.67.37a6.2,6.2,0,0,1-2.41-.7A12.81,12.81,0,0,1,288.73,46.66Z"/><path class="cls-10" d="M209.56,65.83s-.45-2-4.17-3a8.48,8.48,0,0,0-5.45.65c-1.73.82-2.6,2.44-3.7,4.88-1.24,2.73-2.13,8.92-2.46,11.91-.37,3.33-.5,9.9.37,13.13.71,2.66,1.74,6.94,5.24,9.66a14.23,14.23,0,0,0,3.86,2.06,8,8,0,0,0,1.57,0l-.92,7.86s-4.4.29-9.46-3.56a19.39,19.39,0,0,1-5.44-7.3c-2.66-5.44-3.12-11.63-2.06-21.66.85-8.07,1.47-12.64,3.37-16.46,1.17-2.37,3.24-6.1,6-8.16a9,9,0,0,1,5.52-1.47,15.06,15.06,0,0,1,4,1.15c1.87.85,4.76,2.43,4.76,2.43Z"/><path class="cls-13" d="M173.36,45.6s5.94-23.68,8.83-31.76c.82-2.31,4.51-6.2,6.81-6.94,12.41-4,39.17-7.13,51.32-6.43,3.15.18,9.22,3.85,10.85,6.62,4.42,7.5,9.74,35.9,9.74,35.9l-32.74-1.47s11.46-7.8,11.6-10.8c.2-4.33-.06-14.77-2.4-16.7-1.55-1.27-20.24.75-20.24.75s-14,2.13-18.66,3c-.91.17-2.43,1-3.22,4.5-.85,3.72-1.88,11.18-.74,14.81s10.12,11.63,10.12,11.63l-.14,1.4-24.14-4.43Z"/><path class="cls-7" d="M192.31,47.41V45.69s-6.41-7.34-7.73-10.28a18.54,18.54,0,0,1-.83-5.26c-.13-3.85,1.08-11.68,2.66-15.19a10.49,10.49,0,0,1,3.51-3.56C194.27,9.1,210,7.27,210,7.27s16-1.61,21.63-1.69c1.51,0,4.69.39,5.89,1.32s2.26,4.42,2.76,6c1,3.25,1.82,10.23,1.29,13.6a24.32,24.32,0,0,1-1.84,4.22l.07-5.48s-.76-11.07-2.47-11.22c-9.3-.76-29.69,2.22-38.9,3.76-1.35.22-2.57,2.49-3.22,4.5-1.13,3.52-2.09,11.37-.74,14.81,1.42,3.61,10.12,11.63,10.12,11.63l-.14,1.4Z"/><path class="cls-14" d="M234.22.73c3.17.49,7.05,1.06,9.33,3.56,2.81,3.06,3.53,7.85,4.37,11.77a225.5,225.5,0,0,1,4,26.37c0,.47.79.48.75,0a226.08,226.08,0,0,0-4.32-28c-.81-3.7-1.69-8.2-4.53-11-2.41-2.36-6.19-3-9.38-3.46-.48-.08-.68.64-.2.72Z"/><polygon class="cls-10" points="170.03 45.69 170.72 40.75 171.41 40.75 171.41 39.98 170.72 39.98 171.41 39.24 171.41 37.3 172.23 33.79 171.61 33.79 171.68 29.43 175.02 29.43 175.02 33.67 174.52 33.69 174.9 36.25 175.02 37.23 175.01 39.16 174.55 40.94 173.36 45.6 170.03 45.69"/><path class="cls-15" d="M209.25,67.67a12.58,12.58,0,0,0-6-.29c-1.57.46-4.56,2.29-5.44,3.7a15.76,15.76,0,0,0-1.65,8.78,15.65,15.65,0,0,0,2.59,6.28,11.8,11.8,0,0,0,3.4,2.81,30.14,30.14,0,0,0,4.48.94l1.25-10.58Z"/></g></g></svg>